<?xml version="1.0" encoding="utf-8"?>
<!-- Generator: Adobe Illustrator 21.1.0, SVG Export Plug-In . SVG Version: 6.00 Build 0)  -->
<svg version="1.1" id="Layer_1" xmlns="http://www.w3.org/2000/svg" xmlns:xlink="http://www.w3.org/1999/xlink" x="0px" y="0px"
	 viewBox="0 0 255.2 225.5" style="enable-background:new 0 0 255.2 225.5;" xml:space="preserve">
<style type="text/css">
	.st0{fill:#0069B4;}
	.st1{fill:#E40521;}
	.st2{fill:#FFCC00;}
	.st3{fill:#FFFFFF;}
</style>
<path class="st0" d="M110.4,4.4c1.5,6.7,0.8,13.6,1.1,20.9l-0.1,21.2c-0.8,18.5-3.4,36.4-7.2,53.8l-5,21.5c-1.7,5.9-3,12-4.7,17.9
	l-51,0c24.4-25.4,38.8-51.2,50.8-83.3c5.3-16.2,8.9-33.9,6-52H110.4z"/>
<ellipse class="st1" cx="127.6" cy="42.3" rx="15.2" ry="11.1"/>
<path class="st2" d="M144.8,4.7c-1.5,6.7-0.8,13.6-1.1,20.9l0.1,21.2c0.8,18.5,3.4,36.4,7.2,53.8l5,21.5c1.7,5.9,3,12,4.7,17.9l51,0
	C187.4,114.6,173,88.7,161,56.6c-5.3-16.2-8.9-33.9-6-52H144.8z"/>
<path class="st3" d="M14.2,167.1c3.7,0,4.4,0,10.5,0v-11.4l-3.8,0v-1.1c0,0,3.2,0,7,0c2.2,0,4.4,0,6.5,0v1.1l-3.8,0v24.6l3.8,0v1.1
	c-2.2,0-4.5,0-6.8,0c-2.3,0-4.6,0-6.8,0v-1.1l3.8,0v-11.9c-1.8,0-3.7,0-5.5,0c-2.7,0-3.8,0-5,0v11.9l3.8,0v1.1c-2.9,0-6.1,0-7.3,0
	c-2.1,0-4.3,0-6.4,0v-1.1l3.9,0v-24.6l-3.9,0v-1.1c2.2,0,4.5,0,6.7,0c2.3,0,4.6,0,7,0v1.1l-3.8,0V167.1z"/>
<path class="st3" d="M49.8,182c-7.1,0-13.5-5.9-13.5-13.9c0-7,5.4-14.1,13.4-14.1c7.4,0,13.8,6,13.8,14.1
	C63.4,176.2,56.9,182,49.8,182z M49.8,155.1c-1.7,0-3.6,0.6-5,3.1c-1.6,2.9-1.7,8.2-1.7,9.9c0,4.4,0.8,12.7,6.8,12.7
	c5.3,0,6.6-6.2,6.6-13.1C56.6,163.1,55.9,155.1,49.8,155.1z M45.8,152.5c-1.3,0-2.3-1.1-2.3-2.3c0-1.3,1-2.3,2.3-2.3
	c1.3,0,2.3,1.1,2.3,2.2C48,151.3,47.2,152.5,45.8,152.5z M53.8,152.5c-1.3,0-2.3-1.1-2.3-2.3c0-1.3,1-2.3,2.3-2.3
	c1.3,0,2.3,1,2.3,2.2S55.1,152.5,53.8,152.5z"/>
<path class="st3" d="M81.2,172.2c0.1,0,2.9,0,6.3,0c2.2,0,4.3,0,6.5,0v1.1l-3,0l-0.1,3.6c-3,4.9-8.8,5.1-10.3,5.1
	c-8,0-13.4-6.2-13.4-13.6c0-8,6.3-14.4,13.6-14.4c3.7,0,6.2,1.7,7.3,2.5l1.3-1.5l0.8,0.4c-0.2,1.3-0.3,2.4-0.3,3.6
	c0,0.8,0.1,1.6,0.1,2.4l0.2,2.4l-1,0.2c-0.4-1.6-0.6-2.5-1-3.5c-1.6-4-4.6-5.2-6.7-5.2c-5.6,0-7.5,7.3-7.5,13.1
	c0,7.4,2.5,12.3,6.7,12.3c1.6,0,3.1-0.9,3.9-2.2c0.6-1,0.6-2,0.6-3.1v-2.2l-4,0V172.2z"/>
<path class="st3" d="M97.7,172.3c0.4,2.2,1.4,8.2,7.4,8.2c3.9,0,5.8-2.5,5.8-5c0-2.9-2.3-3.7-4.8-4.6l-2.2-0.7
	c-2.5-0.9-7.4-2.6-7.4-8.1c0-4.9,3.9-8,8.2-8c2.5,0,4.3,1,5.5,1.7l1.1-1.2l0.9,0.3c-0.2,2.2-0.2,2.9-0.2,4c0,1.6,0.1,2.8,0.2,3.5
	l-1.2,0.3c-0.3-1.7-0.5-2.6-0.8-3.5c-0.9-2.1-2.9-3.8-5.6-3.8c-2.5,0-4.8,1.7-4.8,4.2c0,2.7,2.4,3.5,5.2,4.5l1.7,0.5
	c2.5,0.9,7.3,2.6,7.3,8.4c0,4.9-3.7,9-8.9,9c-2.9,0-5-1.2-6.6-2.2l-1,1.6l-1.1-0.4c0.1-1.2,0.2-2.5,0.2-3.9c0-1.5-0.2-3.6-0.2-4.6
	L97.7,172.3z"/>
<path class="st3" d="M130.9,164.3l11.4,16l3,0v1.1c-2.1,0-4.2,0-6.3,0c-2.5,0-5,0-7.5,0v-1.1l3.3,0c-0.1-0.2-0.2-0.5-0.4-0.7
	c-0.4-0.7-2.8-4.1-3.3-4.9l-4.8-7l6-7.1c3.2-4,3.3-4.1,3.9-5l-3.5,0v-1.1c1.7,0,3.5,0,5.2,0c1.4,0,2.8,0,4.1,0v1.1l-3.5,0
	c-1.3,1.4-1.9,2-4.2,4.7L130.9,164.3z M126.5,180.3l3.6,0v1.1c-2.1,0-4.1,0-6.1,0c-2.4,0-4.9,0-7.3,0v-1.1l3.8,0v-24.6l-3.7,0v-1.1
	c2.2,0,4.4,0,6.6,0c2.2,0,4.4,0,6.7,0v1.1l-3.7,0l-0.2,12.1L126.5,180.3z"/>
<path class="st3" d="M158.2,182c-7.1,0-13.5-5.9-13.5-13.9c0-7,5.4-14.1,13.4-14.1c7.4,0,13.8,6,13.8,14.1
	C171.9,176.2,165.3,182,158.2,182z M158.3,155.1c-1.7,0-3.6,0.6-5,3.1c-1.6,2.9-1.7,8.2-1.7,9.9c0,4.4,0.8,12.7,6.8,12.7
	c5.3,0,6.6-6.2,6.6-13.1C165,163.1,164.3,155.1,158.3,155.1z"/>
<path class="st3" d="M183.7,173.4c0,0.9,0,5.5,0,6.6h2.4c3.4-0.1,5.5-0.2,7-1.3c1.6-1.3,1.9-3.3,2.1-5.5l0.2-1.3l1.2,0.1l-0.3,4.1
	c-0.1,1.1-0.1,2.1-0.2,3.2c-0.1,2.2-0.2,2.3-1.4,2.3c-1.9,0-11.1-0.1-13.1-0.1c-1.3,0-2.6,0-3.9,0c-1.3,0-2.6,0-3.9,0l0-1.1l3.9-0.1
	c0.1-2.5,0.1-3.8,0.1-6.9V163c0-5.1,0-5.8-0.1-7.3l-3.9,0l0-1.1c2.2,0,4.4,0,6.5,0c3.7,0,6.4,0,7.3,0v1.1l-3.9,0V173.4z"/>
<path class="st3" d="M216.6,169.8c0.6,1.6,1.1,3.2,1.7,4.9c1.1,3.3,1.3,3.7,2,5.6l3,0v1.1c-2,0-4.1,0-6.1,0c-2.2,0-4.5,0-6.7,0v-1.1
	l3.5,0l-2.5-8.4h-6.8l-2.5,8.4h3.6v1.1c-1.4,0-2.7,0-4.1,0c-1.4,0-3,0-4.4,0v-1.1h3.1c0.9-2.4,1.6-4.7,3.3-10.2l2.1-6.6
	c1.7-5.6,2-6.8,2.7-9.4h3.3c0.1,0.3,0.2,0.5,0.2,0.8c0.5,1.7,0.8,2.6,2.8,9.1L216.6,169.8z M211.1,170.7l-0.7-2.3
	c-1.3-3.9-1.6-5.2-2.4-7.8l-3,10.1H211.1z"/>
<path class="st3" d="M246.8,172.2c0,4.2,0,5,0.1,9.2h-2.7c-1.1-1.8-1.9-3.2-3.7-6l-11.5-18l0.2,22.9l4.1,0v1.1c-1.7,0-3.4,0-5.1,0
	c-1.4,0-2.9,0-4.4,0v-1.1l3.8,0c0-0.7,0-1.4,0-2.2c0-3.1,0-6.2,0-9.3c0-4.3,0-8.5,0.2-12.8c-0.6-0.2-0.8-0.3-1.8-0.3l-2.1,0v-1.1
	c1.6,0,3.8,0,5.8,0c2.1,0,2.8,0,4.3,0c1.1,1.7,2.4,3.9,3.2,5.2l8.2,13l0.2-17.1l-4.3,0v-1.1c1.6,0,3.2,0,4.8,0c1.6,0,3.2,0,4.8,0
	v1.1l-3.8,0c0,1.1-0.2,6.2-0.2,7.4L246.8,172.2z"/>
<path class="st3" d="M62.8,220.3l3.8,0v1.1c-2.2,0-4.4,0-6.7,0c-2.3,0-4.6,0-7,0v-1.1l3.8,0v-24.6l-3.8,0v-1.1c2.4,0,4.9,0,7.3,0
	c2.1,0,4.2,0,6.3,0v1.1l-3.8,0V220.3z"/>
<path class="st3" d="M92.7,212.2c0.1,0,2.9,0,6.3,0c2.2,0,4.3,0,6.5,0v1.1l-3,0l-0.1,3.6c-3,4.9-8.8,5.1-10.3,5.1
	c-8,0-13.4-6.2-13.4-13.6c0-8,6.3-14.4,13.6-14.4c3.7,0,6.2,1.7,7.3,2.5l1.3-1.5l0.8,0.4c-0.2,1.3-0.3,2.4-0.3,3.6
	c0,0.8,0.1,1.6,0.1,2.4l0.2,2.4l-1,0.2c-0.4-1.6-0.6-2.5-1-3.5c-1.6-4-4.6-5.2-6.7-5.2c-5.6,0-7.5,7.3-7.5,13.1
	c0,7.4,2.5,12.3,6.7,12.3c1.6,0,3.1-0.9,3.9-2.2c0.6-1,0.6-2,0.6-3.1v-2.2l-4,0V212.2z"/>
<path class="st3" d="M123.3,209.8c0.6,1.6,1.1,3.2,1.7,4.9c1.1,3.3,1.3,3.7,2,5.6l3,0v1.1c-2,0-4.1,0-6.1,0c-2.2,0-4.5,0-6.7,0v-1.1
	l3.5,0l-2.5-8.4h-6.8l-2.5,8.4h3.6v1.1c-1.4,0-2.7,0-4.1,0c-1.4,0-3,0-4.4,0v-1.1h3.1c0.9-2.4,1.6-4.7,3.3-10.2l2.1-6.6
	c1.7-5.6,2-6.8,2.7-9.4h3.3c0.1,0.3,0.2,0.5,0.2,0.8c0.5,1.7,0.8,2.6,2.8,9.1L123.3,209.8z M117.8,210.7l-0.7-2.3
	c-1.3-3.9-1.6-5.2-2.4-7.8l-3,10.1H117.8z M112.6,192.5c-1.3,0-2.3-1.1-2.3-2.3c0-1.3,1-2.3,2.3-2.3c1.3,0,2.3,1.1,2.3,2.2
	C114.9,191.3,114,192.5,112.6,192.5z M120.6,192.5c-1.3,0-2.3-1.1-2.3-2.3c0-1.3,1-2.3,2.3-2.3c1.3,0,2.3,1,2.3,2.2
	S122,192.5,120.6,192.5z"/>
<path class="st3" d="M130.6,201c-1.6-4-1.7-4.3-2.1-5.3l-3.5,0v-1.1c2.4,0,4.7,0,7.1,0c2.4,0,4.7,0,7.1,0l0,1.1l-3.9,0
	c0.6,2.4,1,3.8,2.7,8.9l3.6,10.7l4.1-13.1c1.3-4.6,1.6-5.8,1.8-6.5l-4.1,0l0-1.1c1.5,0,3,0,4.5,0c1.6,0,3.2,0,4.9,0v1.1l-3.5,0
	l-6.1,19c-0.8,2.5-1.2,4-2.1,7.6h-3c-1.4-4.3-1.6-4.7-2.8-8.1L130.6,201z"/>
<path class="st3" d="M163,213.4c0,0.9,0,5.5,0,6.6h2.4c3.4-0.1,5.5-0.2,7-1.3c1.6-1.3,1.9-3.3,2.1-5.5l0.2-1.3l1.2,0.1l-0.3,4.1
	c-0.1,1.1-0.1,2.1-0.2,3.2c-0.1,2.2-0.2,2.3-1.4,2.3c-1.9,0-11.1-0.1-13.1-0.1c-1.3,0-2.6,0-3.9,0c-1.3,0-2.6,0-3.9,0l0-1.1l3.9-0.1
	c0.1-2.5,0.1-3.8,0.1-6.9V203c0-5.1,0-5.8-0.1-7.3l-3.9,0l0-1.1c2.2,0,4.4,0,6.5,0c3.7,0,6.4,0,7.3,0v1.1l-3.9,0V213.4z"/>
<path class="st3" d="M187.1,207.9l0.2,12.1h1.9c3.7,0,5.7-0.1,7.3-1.1c1.9-1.3,2.2-3.3,2.6-6l1.2,0l-0.3,3.9c-0.1,2-0.2,3.2-0.3,4
	c-0.1,0.6-0.2,0.7-1.4,0.7c-0.3,0-1.7,0-2.1,0c-4.3,0-8.7-0.1-13-0.1c-2,0-4,0-6,0.1v-1.1l3.8,0v-24.5l-3.6,0v-1.1
	c7,0,14.4,0.1,21-0.2c0,1.3,0,1.9,0.1,3.5l0.2,3.9l-1.1,0.2c-0.8-4.9-2.2-6.1-8.5-6.1l-2.1,0l-0.1,10.8l1.5-0.1
	c3.3-0.2,4.1-1.4,4.3-4.9h1.1c-0.1,1.3-0.2,2.5-0.2,7.1c0,0.7,0,2.3,0.1,3.8h-1.1c-0.4-3.7-0.5-4.5-4.3-4.8L187.1,207.9z"/>
</svg>
